<svg width="70" height="78" viewBox="0 0 70 78" fill="none" xmlns="http://www.w3.org/2000/svg">
<path d="M34.9116 39C40.0833 39 45.0432 36.9455 48.7002 33.2886C52.3572 29.6316 54.4116 24.6717 54.4116 19.5C54.4116 14.3283 52.3572 9.36838 48.7002 5.71142C45.0432 2.05446 40.0833 0 34.9116 0C29.7399 0 24.78 2.05446 21.123 5.71142C17.4661 9.36838 15.4116 14.3283 15.4116 19.5C15.4116 24.6717 17.4661 29.6316 21.123 33.2886C24.78 36.9455 29.7399 39 34.9116 39ZM27.9495 46.3125C12.9437 46.3125 0.786621 58.4695 0.786621 73.4754C0.786621 75.9738 2.81279 78 5.31123 78H64.512C67.0104 78 69.0366 75.9738 69.0366 73.4754C69.0366 58.4695 56.8796 46.3125 41.8737 46.3125H27.9495Z" fill="#1E3050"/>
</svg>
