<svg width="85" height="73" viewBox="0 0 85 73" fill="none" xmlns="http://www.w3.org/2000/svg">
<path d="M8.61398 42.8664L38.3283 70.6075C39.5616 71.7586 41.1896 72.3999 42.8833 72.3999C44.577 72.3999 46.205 71.7586 47.4383 70.6075L77.1527 42.8664C82.1516 38.2128 84.98 31.6845 84.98 24.8602V23.9065C84.98 12.4121 76.6758 2.61148 65.3458 0.720413C57.8474 -0.529332 50.2174 1.92083 44.8566 7.28158L42.8833 9.25486L40.91 7.28158C35.5493 1.92083 27.9193 -0.529332 20.4208 0.720413C9.09085 2.61148 0.786621 12.4121 0.786621 23.9065V24.8602C0.786621 31.6845 3.61499 38.2128 8.61398 42.8664Z" fill="#FF2929"/>
</svg>
